<svg xmlns="http://www.w3.org/2000/svg" viewBox="0 0 80 50" fill="none">
  <path d="M7 10h16l8 8-8 8H7z" fill="#1F4AD8"/>
  <path d="M57 10h16v16H57l-8-8z" fill="#1F4AD8"/>
  <path d="M24 15l6-3c2-1 4-1 6 0l4 2 6-2c2-1 4-1 6 1l3 3c1 1 1 3 0 4l-6 6c-2 2-5 2-7 0l-2-2-2 2c-2 2-5 2-7 0l-8-8c-1-1-1-2-1-3 0-1 1-2 2-3Z" fill="#F6CE00" stroke="#0B0B0B" stroke-width="2"/>
  <path d="M30 18l7 7m3-4 4 4m-18-2 4 4" stroke="#0B0B0B" stroke-width="2.2" stroke-linecap="round"/>
  <path d="M7 26h16l6 6-6 6H7z" fill="#5E5E60"/>
  <path d="M57 26h16v12H57l-6-6z" fill="#5E5E60"/>
</svg>
